<svg xmlns="http://www.w3.org/2000/svg" width="32" height="32" viewBox="0 0 32 32" shape-rendering="crispEdges">
  <rect width="32" height="32" fill="rgba(0,0,0,0)"/>
  <rect x="2" y="2" width="2" height="2" fill="#1a1714"/>
  <rect x="4" y="4" width="2" height="2" fill="#1a1714"/>
  <rect x="6" y="6" width="2" height="2" fill="#1a1714"/>
  <rect x="8" y="8" width="2" height="2" fill="#1a1714"/>
  <rect x="10" y="10" width="2" height="2" fill="#1a1714"/>
  <rect x="12" y="12" width="2" height="2" fill="#1a1714"/>
  <rect x="14" y="14" width="2" height="2" fill="#1a1714"/>
  <rect x="16" y="16" width="2" height="2" fill="#1a1714"/>
  <rect x="18" y="18" width="2" height="2" fill="#1a1714"/>
  <rect x="20" y="20" width="2" height="2" fill="#1a1714"/>
  <rect x="2" y="4" width="2" height="18" fill="#1a1714"/>
  <rect x="4" y="6" width="2" height="12" fill="#fff7ef"/>
  <rect x="4" y="18" width="2" height="2" fill="#1a1714"/>
  <rect x="6" y="8" width="2" height="10" fill="#fff7ef"/>
  <rect x="6" y="18" width="2" height="2" fill="#1a1714"/>
  <rect x="8" y="10" width="2" height="8" fill="#fff7ef"/>
  <rect x="8" y="18" width="2" height="2" fill="#1a1714"/>
  <rect x="10" y="12" width="2" height="6" fill="#fff7ef"/>
  <rect x="10" y="18" width="2" height="2" fill="#1a1714"/>
  <rect x="12" y="14" width="2" height="4" fill="#fff7ef"/>
  <rect x="12" y="18" width="2" height="2" fill="#1a1714"/>
  <rect x="14" y="16" width="2" height="2" fill="#fff7ef"/>
  <rect x="14" y="18" width="2" height="2" fill="#1a1714"/>
  <rect x="6" y="20" width="2" height="2" fill="#1a1714"/>
  <rect x="8" y="22" width="2" height="2" fill="#1a1714"/>
  <rect x="10" y="24" width="2" height="2" fill="#1a1714"/>
  <rect x="12" y="26" width="2" height="2" fill="#1a1714"/>
  <rect x="14" y="28" width="2" height="2" fill="#1a1714"/>
  <rect x="8" y="20" width="2" height="2" fill="#fff7ef"/>
  <rect x="10" y="22" width="2" height="2" fill="#fff7ef"/>
  <rect x="12" y="24" width="2" height="2" fill="#fff7ef"/>
  <rect x="14" y="26" width="2" height="2" fill="#fff7ef"/>
</svg>
